/* XPM */ 
static const unsigned char * bitcoin32_xpm[] = {
"32 32 377 2",
"  	c None",
"! 	c black",
"# 	c #F7F7F8",
"$ 	c #F5F5F6",
"% 	c #F0F0F1",
"& 	c #F2F1F2",
"' 	c white",
"( 	c #DCDCDF",
") 	c #E4E5E6",
"* 	c #E8E9EA",
"+ 	c #EAEBEC",
", 	c #ECEDEE",
"- 	c #EDEEEE",
". 	c #E4E5E5",
"0 	c #C5C6C6",
"1 	c #CCCDCE",
"2 	c #E5E6E7",
"3 	c #EEEFF1",
"4 	c #B8B9BB",
"5 	c #D0D1D1",
"6 	c #E2E3E3",
"7 	c #ECEDED",
"8 	c #F1F2F3",
"9 	c #F3F4F5",
": 	c #F6F7F7",
"; 	c #F4F5F5",
"< 	c #D8D8D9",
"= 	c #B4B4B5",
"> 	c #A7A6A7",
"? 	c #C7C7C8",
"@ 	c #B1B1B2",
"A 	c #D0D1D2",
"B 	c #BEBFC1",
"C 	c #9D9E9F",
"D 	c #9D9D9E",
"E 	c #D8D9D9",
"F 	c #F1F3F4",
"G 	c #F1F2F4",
"H 	c #F4F4F6",
"I 	c #F4F5F6",
"J 	c #FEFFFF",
"K 	c #FDFDFE",
"L 	c #EEEFEF",
"M 	c #DCDCDD",
"N 	c #C2C3C3",
"O 	c #BABABB",
"P 	c #D4D5D6",
"Q 	c #B0B1B2",
"R 	c #7C7D7F",
"S 	c #3D3F41",
"T 	c #969697",
"U 	c #FAFAFA",
"V 	c #FDFDFF",
"W 	c #ECEEEF",
"X 	c #F2F4F5",
"Y 	c #F2F3F4",
"Z 	c #F4F5F7",
"[ 	c #F9FAFC",
"] 	c #D3D3D3",
"^ 	c #D6D6D6",
"_ 	c #BABBBC",
"` 	c #38393B",
"a 	c #48494C",
"b 	c #919191",
"c 	c #F0F0F2",
"d 	c #F3F3F5",
"e 	c #F2F3F5",
"f 	c #F2F2F4",
"g 	c #F0F1F3",
"h 	c #F3F4F6",
"i 	c #EAEAEA",
"j 	c #CDCECE",
"k 	c #D5D5D6",
"l 	c #A7A7A8",
"m 	c #414345",
"n 	c #EFF1F1",
"o 	c #D2D3D3",
"p 	c #EEEFF0",
"q 	c #F0F1F2",
"r 	c #FCFDFE",
"s 	c #F0F1F1",
"t 	c #B9B9B9",
"u 	c #CDCDCE",
"v 	c #C6C8C8",
"w 	c #EFEEEF",
"x 	c #FAFAFC",
"y 	c #EDEEF1",
"z 	c #EFF0F2",
"{ 	c #EDEEEF",
"| 	c #F7F7F9",
"} 	c #FBFBFC",
"~ 	c #C2C2C3",
" !	c #CAC9CA",
"!!	c #F2F4F3",
"#!	c #E3E3E5",
"$!	c #EAEAEC",
"%!	c #EEEEF0",
"&!	c #EBECEE",
"'!	c #F7F8FA",
"(!	c #E6E7E8",
")!	c #BFC0C0",
"*!	c #F9F8F9",
"+!	c #DBDCDC",
",!	c #E8E8EB",
"-!	c #EBEBED",
".!	c #EDEEF0",
"0!	c #ECECEF",
"1!	c #ECEDEF",
"2!	c #EDEDEF",
"3!	c #E9E9EB",
"4!	c #DDDEDF",
"5!	c #848586",
"6!	c #F5F5F5",
"7!	c #F4F6F5",
"8!	c #E2E3E5",
"9!	c #EBEBEE",
":!	c #EAEBED",
";!	c #E9EAEC",
"<!	c #EDEDF0",
"=!	c #F3F3F6",
">!	c #9C9C9D",
"?!	c #C6C6C7",
"@!	c #DDDEDE",
"A!	c #E5E5E8",
"B!	c #E8E9EB",
"C!	c #EAEAED",
"D!	c #E9E9EC",
"E!	c #E5E5E9",
"F!	c #E3E4E7",
"G!	c #F9F9FC",
"H!	c #ECECF0",
"I!	c #F0F0F4",
"J!	c #D2D3D4",
"K!	c #E7E8E9",
"L!	c #E4E5E7",
"M!	c #E7E6E9",
"N!	c #F8F7FA",
"O!	c #F7F6FA",
"P!	c #F7F6F9",
"Q!	c #F8F9FA",
"R!	c #F8F8F9",
"S!	c #B9B9BA",
"T!	c #A8A9AA",
"U!	c #FAFAFD",
"V!	c #F0F0F3",
"W!	c #E4E4E7",
"X!	c #E6E7E9",
"Y!	c #EEEDF0",
"Z!	c #F8F8FA",
"[!	c #E3E4E5",
"]!	c #E2E3E6",
"^!	c #E6E6E9",
"_!	c #E7E7EA",
"`!	c #E6E5E9",
"a!	c #E7E7E7",
"b!	c #E8E8E9",
"c!	c #E9EAEA",
"d!	c #E4E4E5",
"e!	c #E8E9E9",
"f!	c #EFEFEF",
"g!	c #242528",
"h!	c #8D8E91",
"i!	c #DFDFE1",
"j!	c #E6E6EA",
"k!	c #E4E5E8",
"l!	c #BDBDBD",
"m!	c #F3F5F5",
"n!	c #E2E2E4",
"o!	c #E7E7EB",
"p!	c #E2E2E6",
"q!	c #D5D5D8",
"r!	c #D7D7DA",
"s!	c #D6D6D8",
"t!	c #E1E1E3",
"u!	c #D8D9DA",
"v!	c #CDCDD1",
"w!	c #FEFDFF",
"x!	c #C4C6C6",
"y!	c #343536",
"z!	c #D5D6D7",
"{!	c #F4F5F8",
"|!	c #E4E4E8",
"}!	c #E5E4E8",
"~!	c #FBFCFD",
" #	c #C5C5C5",
"!#	c #F1F0F1",
"##	c #DBDCDE",
"$#	c #E3E3E7",
"%#	c #E9E8EC",
"&#	c #E3E2E7",
"'#	c #F0F0EF",
"(#	c #D6D5DA",
")#	c #F8F9F8",
"*#	c #BEBDBE",
"+#	c #EAE9ED",
",#	c #E3E4E6",
"-#	c #E1E2E2",
".#	c #DBDBDD",
"0#	c #E2E2E5",
"1#	c #E1E1E5",
"2#	c #E2E1E5",
"3#	c #E1E1E4",
"4#	c #DCDCE0",
"5#	c #E1E1E2",
"6#	c #E3E4E4",
"7#	c #ECECEB",
"8#	c #C5C5C7",
"9#	c #E1E0E4",
":#	c #E0E1E4",
";#	c #E3E3E6",
"<#	c #E1E2E3",
"=#	c #DFDFE3",
">#	c #E0E0E4",
"?#	c #DDDDE1",
"@#	c #DEDEE0",
"A#	c #C6C7C8",
"B#	c #CACACC",
"C#	c #E1E0E5",
"D#	c #E4E4E9",
"E#	c #DEDEE2",
"F#	c #DFDFE4",
"G#	c #DEDDE2",
"H#	c #C3C3C4",
"I#	c #F3F3F4",
"J#	c #E0E1E3",
"K#	c #DDDEE1",
"L#	c #DFDEE2",
"M#	c #E1E2E5",
"N#	c #EBEBF0",
"O#	c #F2F2F5",
"P#	c #FCFCFA",
"Q#	c #CDCDD0",
"R#	c #DEDEE3",
"S#	c #E0E1E5",
"T#	c #DBDBDF",
"U#	c #F7F7FA",
"V#	c #BCBEBD",
"W#	c #DCDDE0",
"X#	c #DDDCE1",
"Y#	c #D7D6DA",
"Z#	c #C3C3C6",
"[#	c #FDFDFB",
"]#	c #D1D0D5",
"^#	c #E2E2E7",
"_#	c #DCDBE0",
"`#	c #DDDEE2",
"a#	c #ECECEE",
"b#	c #C0C0C5",
"c#	c #DFDDE3",
"d#	c #DADADE",
"e#	c #E6E7EB",
"f#	c #C2C3C5",
"g#	c #363738",
"h#	c #A1A1A1",
"i#	c #E4E3E8",
"j#	c #E0E0E5",
"k#	c #DBDADF",
"l#	c #DCDADF",
"m#	c #F5F7F7",
"n#	c #B7B8BA",
"o#	c #9A9A9C",
"p#	c #E1E1E6",
"q#	c #D9D9DD",
"r#	c #DAD9DD",
"s#	c #DCDCE1",
"t#	c #CACBCD",
"u#	c #B8B7BB",
"v#	c #CFCED3",
"w#	c #D9D8DC",
"x#	c #DADADD",
"y#	c #D9D8DD",
"z#	c #D8D7DB",
"{#	c #F5F5F9",
"|#	c #7B7C7F",
"}#	c #CFCFD3",
"~#	c #EAE9EF",
" $	c #D5D4D9",
"!$	c #D8D8DC",
"#$	c #D8D7DC",
"$$	c #D8D6DB",
"%$	c #DADADF",
"&$	c #ECEBF1",
"'$	c #D8D8DD",
"($	c #D7D7DB",
")$	c #DAD9DE",
"*$	c #D5D6DB",
"+$	c #FBFAFC",
",$	c #E9E8ED",
"-$	c #B0AFB4",
".$	c #D2D2D7",
"0$	c #DDDDE2",
"1$	c #D4D5D9",
"2$	c #D6D6DB",
"3$	c #D7D6DB",
"4$	c #D5D5DA",
"5$	c #D6D6DA",
"6$	c #D7D6DC",
"7$	c #F4F4F9",
"8$	c #D2D2D2",
"9$	c #BDBCC0",
":$	c #B6B7BA",
";$	c #E0DFE5",
"<$	c #DBDAE0",
"=$	c #D3D3D8",
">$	c #D5D4DA",
"?$	c #D2D0D6",
"@$	c #AAABAB",
"A$	c #EDEFF0",
"B$	c #C2C2C6",
"C$	c #B1B1B6",
"D$	c #D3D1D7",
"E$	c #D4D3D9",
"F$	c #D0CED5",
"G$	c #ECECF1",
"H$	c #979998",
"I$	c #464849",
"J$	c #AEAEB1",
"K$	c #C8C8CC",
"L$	c #B9B9BE",
"M$	c #D1D1D5",
"N$	c #D4D3D8",
"O$	c #D2D2D6",
"P$	c #D3D2D7",
"Q$	c #D3D3D7",
"R$	c #FAF8FE",
"S$	c #B9B9BD",
"T$	c #313233",
"U$	c #C3C3C8",
"V$	c #C9C8CE",
"W$	c #A9A9AD",
"X$	c #DDDBE1",
"Y$	c #D8D7DD",
"Z$	c #D1D0D6",
"[$	c #D2D1D6",
"]$	c #D0CFD5",
"^$	c #D9D7DC",
"_$	c #F4F3F8",
"`$	c #C1C1C4",
"a$	c #2F3132",
"b$	c #5C5C5C",
"c$	c #B6B6B9",
"d$	c #DCDBE2",
"e$	c #AEADB2",
"f$	c #ACABB0",
"g$	c #C2C2C7",
"h$	c #DAD9DF",
"i$	c #CFCED4",
"j$	c #D1CFD6",
"k$	c #D0CFD6",
"l$	c #D3D2D8",
"m$	c #D5D5D9",
"n$	c #D9D9DE",
"o$	c #E7E7EC",
"p$	c #B3B4B7",
"q$	c #555657",
"r$	c #ABACAD",
"s$	c #D8D9DB",
"t$	c #BABBBE",
"u$	c #B8B8BD",
"v$	c #96959A",
"w$	c #A2A1A6",
"x$	c #C0C0C4",
"y$	c #D4D4D8",
"z$	c #CFCFD4",
"{$	c #CECED3",
"|$	c #CDCCD2",
"}$	c #A7A8A9",
"~$	c #CBCBCE",
" %	c #C9C9CD",
"!%	c #E9E8EE",
"#%	c #E7E6EB",
"$%	c #DFDFE2",
"%%	c #C0C0C2",
"&%	c #D7D9D7",
"'%	c #D0D0D1",
"(%	c #D9D9DA",
")%	c #C2C1C2",
"                          # $ % & ' '                           ",
"                    ( ) * + , - . 0 1 2 * 3                     ",
"                4 5 6 7 8 9 8 : ; < = > ? @ A B                 ",
"            C D E : ; F G H I I $ J K L M N O P Q R             ",
"          S T U V W G I H 9 9 X X Y Z [ ' J ] O ^ _ `           ",
"        a b ' Z c d e G f f f f f f f G g h ' i j k l m         ",
"      n o ' p 8 8 g g g g g g g g g g g g q 3 r s t u + v       ",
"      w x y 3 c z z z z z z z z z z z z z z z { | } ~  !'       ",
"    !!#!$!, z %!%!%!%!%!%!%!%!%!%!%!%!%!%!%!%!p &!'!(!)!*!+!    ",
"    * ,!-!.!0!1!1!1!1!1!1!1!1!1!1!1!1!1!1!1!1!1!2!3!' 4!5!6!    ",
"  7!8!9!:!&!9!9!9!9!9!9!&!&!&!&!&!&!:!;!:!&!9!9!9!9!<!=!>!?!@!  ",
"  , A!B!;!;!;!;!;!;!C!D!E!E!E!E!A!F!G!' H!,!C!;!;!;!B!I!&!J!K!  ",
"  (!L!M!B!,!,!,!,!,!A!:!N!O!P!| Q!R!S!T!U!V!W!,!,!,!,!X!<!B!Y!  ",
"Z![!]!^!_!^!^!^!^!^!`!M!a!b!c!d!e!f!t g!h!i!.!j!^!^!^!^!^!k!K l!",
"m!n!X!F!k!k!k!k!k!k!o!p!q!r!s!t!u!v!w!x!y!z!{!|!k!k!k!k!}!8!~! #",
"!###L!$#$#$#$#$#$#$#p!W!%#,!&#' '#(#' )#*#+#p!$#$#$#$#$#,#8!H!-#",
"& .#0#1#2#2#2#2#2#2#2#2#3#2#4#K 5#6#7#8#I!|!9#2#2#2#2#2#:#;#1!5#",
"f <#:#=#>#>#>#>#>#>#>#>#>#4#?#' @#A#B#C#D#E#>#>#>#>#>#>#F#G#G!H#",
"I#J#K#L#E#E#E#E#E#E#E#4#M#N#O#P#Q#R#S#1#?#E#E#E#E#E#E#E#=#T#U#V#",
"  3#W#=#4#X#X#X#X#X#4#>#Y#Z#[#5 ]#^#X#4#X#X#X#X#X#X#X#_#G#`#a#  ",
"  b!b#1#c#d#T#T#T#T#4#e#f#g#h#i#j#d#T#T#T#T#T#T#T#T#T#k#l#|!$!  ",
"  m#n#o#p#T#q#r#r#r#d#s#t#u#v#^#w#r#r#r#r#r#r#r#r#r#x#y#z#{#0   ",
"    2!|#}#~# $!$!$!$#$$$%$&$R# $!$!$!$!$!$!$!$!$!$'$($)$*$+$    ",
"    6 ,$-$.$0$1$($2$2$3$($4$5$($2$2$2$2$2$2$2$2$2$4$6$!$7$8$    ",
"      ' 9$:$;$<$=$>$>$>$>$>$>$>$>$>$>$>$>$>$>$>$(#?$($<!x       ",
"      @$A$B$C$ $_#D$E$E$E$E$E$E$E$E$E$E$E$E$E$E$F$z#G$c H$      ",
"        I$J$K$L$M$0$N$O$P$Q$Q$Q$Q$Q$.$Q$Q$.$.$?$4$R$S$I$        ",
"          T$U$V$W$B$X$Y$ $?$Z$?$[$?$[$]$]$Z$=$^$_$`$a$          ",
"            b$c$d$e$f$g$Z$h$6$i$]$j$k$l$[$m$n$o$p$q$            ",
"                r$s$t$u$v$w$x$y$z${$|$5$<$E!R#}$                ",
"                    < ##T#~$ %)$T#!%#%L#$%%%                    ",
"                          &%'%(%M )%0                           "};