/* XPM */ 
static const unsigned char * bitcoin16_xpm[] = {
"16 16 174 2",
"  	c None",
"! 	c black",
"# 	c #EBEBED",
"$ 	c #F5F6F6",
"% 	c #F2F3F4",
"& 	c #E2E2E2",
"' 	c #DADADA",
"( 	c #EEF0F2",
") 	c #858687",
"* 	c #DFE0E0",
"+ 	c #F0F1F1",
", 	c #F0F1F3",
"- 	c #F7F8F9",
". 	c #E9EAEA",
"0 	c #D0D0D1",
"1 	c #CACACA",
"2 	c #C9CACB",
"3 	c #838486",
"4 	c #5F6162",
"5 	c #D6D6D6",
"6 	c white",
"7 	c #F5F6F7",
"8 	c #F4F4F6",
"9 	c #F1F3F4",
": 	c #F8F8FA",
"; 	c #F7F8F8",
"< 	c #E7E7E7",
"= 	c #BEBEBF",
"> 	c #67686A",
"? 	c #EFEFF0",
"@ 	c #F0F0F3",
"A 	c #F0F0F2",
"B 	c #EFF0F2",
"C 	c #EEEFF1",
"D 	c #F1F3F5",
"E 	c #FCFDFF",
"F 	c #ECEDED",
"G 	c #DEDDDE",
"H 	c #CCCDCD",
"I 	c #EEEEEF",
"J 	c #F3F3F5",
"K 	c #EDEDF0",
"L 	c #EDEDEF",
"M 	c #EDEEF0",
"N 	c #ECEDEF",
"O 	c #EDEEEF",
"P 	c #EBECEE",
"Q 	c #FBFBFD",
"R 	c #E2E1E3",
"S 	c #C8C8C9",
"T 	c #F6F7F7",
"U 	c #E4E4E6",
"V 	c #EAEBED",
"W 	c #E9EAED",
"X 	c #ECEDF0",
"Y 	c #E8E9EB",
"Z 	c #F7F8FA",
"[ 	c #E6E6E9",
"] 	c #EEEEF1",
"^ 	c #E8E8EB",
"_ 	c #D6D7D8",
"` 	c #B8B9B9",
"a 	c #EFEFF1",
"b 	c #E2E2E4",
"c 	c #E7E8EA",
"d 	c #E7E7EA",
"e 	c #E6E7EA",
"f 	c #E7E6E9",
"g 	c #EAEAED",
"h 	c #F3F4F5",
"i 	c #939496",
"j 	c #B1B2B4",
"k 	c #F7F7F9",
"l 	c #E5E6E8",
"m 	c #D1D2D2",
"n 	c #E8E8E9",
"o 	c #E0E1E4",
"p 	c #E4E4E8",
"q 	c #E4E4E7",
"r 	c #E4E3E7",
"s 	c #DBDBDE",
"t 	c #E4E4E5",
"u 	c #F3F3F4",
"v 	c #BBBBBB",
"w 	c #A3A3A5",
"x 	c #F6F6F9",
"y 	c #E3E3E7",
"z 	c #E3E3E6",
"{ 	c #E8E9EC",
"| 	c #E9E9EA",
"} 	c #DDDDE1",
"~ 	c #E1E0E5",
" !	c #E1E1E5",
"!!	c #E0E0E4",
"#!	c #E0DFE3",
"$!	c #E6E7EC",
"%!	c #F9F8FB",
"&!	c #E1E1E0",
"'!	c #E5E5E7",
"(!	c #EFEFF4",
")!	c #DDDDE2",
"*!	c #E0DFE4",
"+!	c #E4E5E9",
",!	c #E5E6E7",
"-!	c #DCDCE0",
".!	c #DEDDE2",
"0!	c #E1E1E6",
"1!	c #CBCBCE",
"2!	c #DDDCDD",
"3!	c #D8D8DC",
"4!	c #DCDCE1",
"5!	c #DFDFE3",
"6!	c #DCDBE0",
"7!	c #EBEAF0",
"8!	c #D3D3D5",
"9!	c #C0C0C3",
":!	c #D6D6DB",
";!	c #DBDBDF",
"<!	c #E5E5E9",
"=!	c #A5A5A6",
">!	c #BCBCBF",
"?!	c #E5E4E9",
"@!	c #DCDBDF",
"A!	c #DADADD",
"B!	c #DBDADE",
"C!	c #D5D4D9",
"D!	c #F1F0F5",
"E!	c #BBBBBC",
"F!	c #C8C8CA",
"G!	c #CAC9CF",
"H!	c #E0E1E5",
"I!	c #D5D6DA",
"J!	c #D5D3D8",
"K!	c #E2E1E6",
"L!	c #DEDDE3",
"M!	c #D5D5D9",
"N!	c #D7D7DB",
"O!	c #D8D7DC",
"P!	c #D2D1D6",
"Q!	c #E6E5EB",
"R!	c #C5C5C6",
"S!	c #D5D5D8",
"T!	c #D3D3D8",
"U!	c #DADADF",
"V!	c #D6D5DB",
"W!	c #D4D3D8",
"X!	c #D4D3D9",
"Y!	c #D4D4DA",
"Z!	c #CECDD3",
"[!	c #E2E0E6",
"]!	c #999A9A",
"^!	c #666768",
"_!	c #BFBFC3",
"`!	c #D2D1D7",
"a!	c #DBDADF",
"b!	c #D0CFD4",
"c!	c #CDCED3",
"d!	c #E4E2E7",
"e!	c #6F7172",
"f!	c #6A6A6C",
"g!	c #C4C3C7",
"h!	c #C3C3C8",
"i!	c #C0BFC6",
"j!	c #CBCAD0",
"k!	c #D4D3DA",
"l!	c #DBD9E0",
"m!	c #E3E3E8",
"n!	c #DCDCDF",
"o!	c #626365",
"p!	c #CDCECE",
"q!	c #BBBBBD",
"r!	c #D4D4D6",
"s!	c #D1D1D3",
"t!	c #CACACC",
"          # $ % & ' (           ",
"      ) * + , - . 0 1 2 3       ",
"    4 5 6 7 8 9 : 6 ; < = >     ",
"  + ? 6 , @ A @ B C D E F G H   ",
"  I J K L M L N O C N P Q R S   ",
"T U V V W V X K Y Z Q [ ] ^ _ ` ",
"a b c d e f g # h i j k l g E m ",
"n o p q p r s t u v w x y z { n ",
"| } ~  !!!#!$!%!&!'!(!)! !*!+!l ",
",! !~ -!.!0!1!2!3!4!5!} )!6!7!8!",
",!9!:!} ;!<!=!>!?!@!A!B!;!C!D!E!",
"  F!G!H!I!J!K!L!M!N!N!O!P!Q!g   ",
"  R!S!T!U!V!W!X!Y!Y!Y!Z![!6 ]!  ",
"    ^!_!`!P!a!X!b!b!c!Q!d!e!    ",
"      f!g!h!i!j!k!l!m!n!o!      ",
"          p!q!r!n!s!t!          "};